<mxfile host="app.diagrams.net" modified="2022-11-17T12:15:48.310Z" agent="5.0 (X11; Ubuntu)" etag="V2hk7gB2assUliDuwlXS" version="20.5.3" type="github">
  <diagram id="SRYrpOnQZ79udbczAR9Z" name="Page-1">
    <mxGraphModel dx="1988" dy="1153" grid="1" gridSize="10" guides="1" tooltips="1" connect="1" arrows="1" fold="1" page="1" pageScale="1" pageWidth="850" pageHeight="1100" math="0" shadow="0">
      <root>
        <mxCell id="0" />
        <mxCell id="1" parent="0" />
        <mxCell id="lfJTZV-Xt3pLAoCiP-_O-1" value="" style="html=1;shadow=0;dashed=0;align=center;verticalAlign=middle;shape=mxgraph.arrows2.arrow;dy=0.6;dx=40;notch=0;" vertex="1" parent="1">
          <mxGeometry x="180" y="380" width="140" height="30" as="geometry" />
        </mxCell>
        <mxCell id="lfJTZV-Xt3pLAoCiP-_O-2" value="" style="html=1;shadow=0;dashed=0;align=center;verticalAlign=middle;shape=mxgraph.arrows2.arrow;dy=0.6;dx=40;notch=15;" vertex="1" parent="1">
          <mxGeometry x="300" y="560" width="170" height="70" as="geometry" />
        </mxCell>
      </root>
    </mxGraphModel>
  </diagram>
</mxfile>
